# xmcd
#
# Track frame offsets:
#	150
#	31353
#	61933
#	88824
#	111680
#	138938
#	158804
#	177789
#	201915
#	217871
#	246905
#
# Disc length: 3734 seconds
#
# Revision: 4206523013
# Processed by: cddbd v1.5.2PL0 Copyright (c) Steve Scherf et al.
# Submitted via: EZCDAudioConverter 8.0.2.1
#
DISCID=9b0e940b
DTITLE=Hài Vân Sơn - Live Show 08
DYEAR=2002
DGENRE=Contemporary Pop
TTITLE0=Vân Sơn - Nước mắt anh hề
TTITLE1=Tâm Đoan - Chuyến tàu hoàng hôn
TTITLE2=Khánh Hoàng - Hát nữa đi em
TTITLE3=Ngọc Thúy - Cho em được mãi yêu anh
TTITLE4=Ngọc Hồ - Tình bạc
TTITLE5=Hoài Linh - Ngựa ô Trung
TTITLE6=Cát Ly - Micky
TTITLE7=Đức Phương - Cũng đành lãng quên
TTITLE8=Ngọc Thúy, Yến Mai, Cát Ly - Cô gái kiêu sa
TTITLE9=Trường Vũ - Tâm sự người thương binh
TTITLE10=Vân Sơn, Hoài Linh, V.A - Áo dài Việt Nam
EXTD=
EXTT0=
EXTT1=
EXTT2=
EXTT3=
EXTT4=
EXTT5=
EXTT6=
EXTT7=
EXTT8=
EXTT9=
EXTT10=
PLAYORDER=
